<mxfile host="app.diagrams.net" agent="Mozilla/5.0 (Macintosh; Intel Mac OS X 10_15_7) AppleWebKit/537.36 (KHTML, like Gecko) Chrome/131.0.0.0 Safari/537.36" version="24.8.8">
  <diagram name="第 1 页" id="GEcqxy-8xR7DSQIYymrr">
    <mxGraphModel dx="2348" dy="2410" grid="0" gridSize="10" guides="1" tooltips="1" connect="1" arrows="1" fold="1" page="0" pageScale="1" pageWidth="827" pageHeight="1169" math="0" shadow="0">
      <root>
        <mxCell id="0" />
        <mxCell id="1" parent="0" />
        <mxCell id="OQ3XkpQ0yaG9EdBYjg81-1" value="" style="rounded=0;whiteSpace=wrap;html=1;" vertex="1" parent="1">
          <mxGeometry x="-1463" y="-901" width="280" height="143" as="geometry" />
        </mxCell>
        <mxCell id="OQ3XkpQ0yaG9EdBYjg81-2" value="dl_phdr_info&lt;div&gt;&lt;span style=&quot;font-family: -apple-system, &amp;quot;system-ui&amp;quot;, &amp;quot;Segoe UI&amp;quot;, Helvetica, Arial, sans-serif, &amp;quot;Apple Color Emoji&amp;quot;, &amp;quot;Segoe UI Emoji&amp;quot;; text-align: start;&quot;&gt;Dynamic Linker Program Header Information&lt;/span&gt;&lt;/div&gt;" style="text;html=1;align=center;verticalAlign=middle;whiteSpace=wrap;rounded=0;fontSize=16;" vertex="1" parent="1">
          <mxGeometry x="-1538" y="-955" width="409" height="40" as="geometry" />
        </mxCell>
        <mxCell id="OQ3XkpQ0yaG9EdBYjg81-3" value="p_type&lt;div&gt;p_flags&lt;/div&gt;&lt;div&gt;p_offset&lt;/div&gt;&lt;div&gt;p_vaddr&lt;/div&gt;&lt;div&gt;p_paddr&lt;/div&gt;&lt;div&gt;p_filesz&lt;/div&gt;&lt;div&gt;p_memsz&lt;/div&gt;&lt;div&gt;p_align&lt;/div&gt;" style="rounded=0;whiteSpace=wrap;html=1;align=left;fontSize=16;" vertex="1" parent="1">
          <mxGeometry x="-1054" y="-923" width="280" height="175" as="geometry" />
        </mxCell>
        <mxCell id="OQ3XkpQ0yaG9EdBYjg81-4" value="Program header table&lt;div&gt;Elf64_Phdr数组&lt;/div&gt;" style="text;html=1;align=center;verticalAlign=middle;whiteSpace=wrap;rounded=0;fontSize=16;" vertex="1" parent="1">
          <mxGeometry x="-996" y="-955" width="185" height="23" as="geometry" />
        </mxCell>
        <mxCell id="OQ3XkpQ0yaG9EdBYjg81-6" value="" style="rounded=0;whiteSpace=wrap;html=1;" vertex="1" parent="1">
          <mxGeometry x="-1054" y="-748" width="280" height="188" as="geometry" />
        </mxCell>
        <mxCell id="OQ3XkpQ0yaG9EdBYjg81-8" value="" style="rounded=0;whiteSpace=wrap;html=1;" vertex="1" parent="1">
          <mxGeometry x="-1054" y="-560" width="280" height="188" as="geometry" />
        </mxCell>
        <mxCell id="OQ3XkpQ0yaG9EdBYjg81-10" value="" style="rounded=0;whiteSpace=wrap;html=1;" vertex="1" parent="1">
          <mxGeometry x="-674" y="-926" width="277" height="335" as="geometry" />
        </mxCell>
        <mxCell id="OQ3XkpQ0yaG9EdBYjg81-11" value="Segment" style="text;html=1;align=center;verticalAlign=middle;whiteSpace=wrap;rounded=0;fontSize=16;" vertex="1" parent="1">
          <mxGeometry x="-621" y="-962" width="185" height="23" as="geometry" />
        </mxCell>
        <mxCell id="OQ3XkpQ0yaG9EdBYjg81-12" value="dl_phdr_info-&amp;gt;dlpi_phnum" style="text;html=1;align=center;verticalAlign=middle;whiteSpace=wrap;rounded=0;fontSize=16;" vertex="1" parent="1">
          <mxGeometry x="-1302" y="-591" width="195" height="30" as="geometry" />
        </mxCell>
        <mxCell id="OQ3XkpQ0yaG9EdBYjg81-13" value="" style="shape=flexArrow;endArrow=classic;startArrow=classic;html=1;rounded=0;fontSize=12;startSize=8;endSize=8;curved=1;" edge="1" parent="1">
          <mxGeometry width="100" height="100" relative="1" as="geometry">
            <mxPoint x="-1091" y="-70" as="sourcePoint" />
            <mxPoint x="-1091" y="-920" as="targetPoint" />
          </mxGeometry>
        </mxCell>
      </root>
    </mxGraphModel>
  </diagram>
</mxfile>
